HIERARCHY
ROOT hip
{
	OFFSET	0.00  0.00  0.00 
	CHANNELS 6 Xposition Yposition Zposition Xrotation Zrotation Yrotation
	JOINT abdomen
	{
		OFFSET	0.000000 1.799998 0.000000
		CHANNELS 3 Xrotation Zrotation Yrotation
		JOINT chest
		{
			OFFSET	0.000000 4.464001 -0.360000
			CHANNELS 3 Xrotation Zrotation Yrotation
			JOINT neck
			{
				OFFSET	0.000000 5.400002 -0.144000
				CHANNELS 3 Xrotation Zrotation Yrotation
				JOINT head
				{
					OFFSET	0.000000 1.655998 0.000000
					CHANNELS 3 Xrotation Zrotation Yrotation
					End Site
					{
						OFFSET 0.000000 1.656000 0.000000
					}
				}
			}
			JOINT lCollar
			{
				OFFSET	1.800000 3.528000 -0.432000
				CHANNELS 3 Yrotation Zrotation Xrotation
				JOINT lShldr
				{
					OFFSET	1.728000 0.000000 0.000000
					CHANNELS 3 Zrotation Yrotation Xrotation
					JOINT lForeArm
					{
						OFFSET	5.328000 0.000000 0.000000
						CHANNELS 3 Yrotation Zrotation Xrotation
						JOINT lHand
						{
							OFFSET	4.464000 0.000000 0.000000
							CHANNELS 3 Zrotation Yrotation Xrotation
						}
					}
				}
			}
			JOINT rCollar
			{
				OFFSET	-1.872000 3.528000 -0.432000
				CHANNELS 3 Yrotation Zrotation Xrotation
				JOINT rShldr
				{
					OFFSET	-1.656000 0.000000 0.000000
					CHANNELS 3 Zrotation Yrotation Xrotation
					JOINT rForeArm
					{
						OFFSET	-5.400000 0.000000 0.000000
						CHANNELS 3 Yrotation Zrotation Xrotation
						JOINT rHand
						{
							OFFSET	-4.392000 0.000000 0.000000
							CHANNELS 3 Zrotation Yrotation Xrotation
						}
					}
				}
			}
		}
	}
	JOINT lThigh
	{
		OFFSET	2.808000 -0.864002 0.720000
		CHANNELS 3 Xrotation Zrotation Yrotation
		JOINT lShin
		{
			OFFSET	-1.080000 -10.583999 0.000000
			CHANNELS 3 Xrotation Zrotation Yrotation
			JOINT lFoot
			{
				OFFSET	0.000000 -10.152000 -0.648000
				CHANNELS 3 Xrotation Yrotation Zrotation
				End Site
				{
					OFFSET 0.000000 -1.296000 2.448000
				}
			}
		}
	}
	JOINT rThigh
	{
		OFFSET	-2.808000 -0.864002 0.720000
		CHANNELS 3 Xrotation Zrotation Yrotation
		JOINT rShin
		{
			OFFSET	1.080000 -10.583999 0.000000
			CHANNELS 3 Xrotation Zrotation Yrotation
			JOINT rFoot
			{
				OFFSET	0.000000 -10.152000 -0.648000
				CHANNELS 3 Xrotation Yrotation Zrotation
				End Site
				{
					OFFSET 0.000000 -1.296000 2.448000
				}
			}
		}
	}
}
MOTION
Frames:     17
Frame Time: 0.033333
0.000000 23.151886 0.000000 0.000000 0.000000 0.000000 0.000000 0.000000 0.000000 0.000000 0.000000 0.000000 0.000000 0.000000 0.000000 0.000000 0.000000 0.000000 0.000000 0.000000 0.000000 0.000000 0.000000 0.000000 0.000000 0.000000 0.000000 0.000000 0.000000 0.000000 9.990230 0.000000 0.000000 0.000000 0.000000 0.000000 0.000000 0.000000 0.000000 0.000000 0.000000 0.000000 0.000000 0.000000 0.000000 0.009766 0.000000 0.000000 -0.273437 0.000000 0.000000 0.000000 -0.058594 0.000000 0.020493 0.032569 -0.011854 0.497961 0.003586 0.012903 
0.000000 23.112001 0.000000 0.000000 0.000000 0.000000 -0.380859 0.009766 -0.292969 -0.810444 -0.077333 -0.908198 -0.886193 0.932458 -0.429523 -2.156695 -1.234458 -0.624119 0.282000 -8.000000 -0.002700 0.000000 -4.000000 0.000000 -8.000000 0.000000 0.000000 -7.000000 0.000000 0.000000 0.000000 8.000000 -0.194200 -0.260200 4.000000 -0.449200 8.000000 0.000000 0.000000 7.000000 0.000000 0.000000 -5.124089 4.949144 0.037339 10.215412 -1.961732 -0.089084 13.393429 2.312308 5.481969 -5.124248 -5.469995 -0.161940 10.359303 2.329889 0.140050 15.028759 -1.763040 -4.980958 
0.000000 23.112001 0.000000 0.000000 0.000000 0.000000 -0.380859 0.009766 -0.292969 -0.810444 -0.077333 -0.908198 -0.886193 0.932458 -0.429523 -2.156695 -1.234458 -0.624119 0.282000 -8.000000 -0.002700 0.000000 -4.000000 0.000000 -8.000000 0.000000 0.000000 -7.000000 0.000000 0.000000 0.000000 8.000000 -0.194200 -0.260200 4.000000 -0.449200 8.000000 0.000000 0.000000 7.000000 0.000000 0.000000 -5.124089 4.949144 0.037339 10.215412 -1.961732 -0.089084 13.393429 2.312308 5.481969 -5.124248 -5.469995 -0.161940 10.359303 2.329889 0.140050 15.028759 -1.763040 -4.980958 
0.000000 23.112001 0.000000 0.000000 0.000000 0.000000 -0.380859 0.009766 -0.292969 -0.810444 -0.077333 -0.908198 -0.886193 0.932458 -0.429523 -2.156695 -1.234458 -0.624119 0.282000 -8.000000 -0.002700 0.000000 -4.000000 0.000000 -8.000000 0.000000 0.000000 -7.000000 0.000000 0.000000 0.000000 8.000000 -0.194200 -0.260200 4.000000 -0.449200 8.000000 0.000000 0.000000 7.000000 0.000000 0.000000 -5.124089 4.949144 0.037339 10.215412 -1.961732 -0.089084 13.393429 2.312308 5.481969 -5.124248 -5.469995 -0.161940 10.359303 2.329889 0.140050 15.028759 -1.763040 -4.980958 
0.000000 23.112001 0.000000 0.000000 0.000000 0.000000 -0.380859 0.009766 -0.292969 -0.810444 -0.077333 -0.908198 -0.886193 0.932458 -0.429523 -2.156695 -1.234458 -0.624119 0.282000 -8.000000 -0.002700 0.000000 -4.000000 0.000000 -8.000000 0.000000 0.000000 -7.000000 0.000000 0.000000 0.000000 8.000000 -0.194200 -0.260200 4.000000 -0.449200 8.000000 0.000000 0.000000 7.000000 0.000000 0.000000 -5.124089 4.949144 0.037339 10.215412 -1.961732 -0.089084 13.393429 2.312308 5.481969 -5.124248 -5.469995 -0.161940 10.359303 2.329889 0.140050 15.028759 -1.763040 -4.980958 
0.000000 23.112001 0.000000 0.000000 0.000000 0.000000 -0.380859 0.009766 -0.292969 -0.810444 -0.077333 -0.908198 -0.886193 0.932458 -0.429523 -2.156695 -1.234458 -0.624119 0.282000 -8.000000 -0.002700 0.000000 -4.000000 0.000000 -8.000000 0.000000 0.000000 -7.000000 0.000000 0.000000 0.000000 8.000000 -0.194200 -0.260200 4.000000 -0.449200 8.000000 0.000000 0.000000 7.000000 0.000000 0.000000 -5.124089 4.949144 0.037339 10.215412 -1.961732 -0.089084 13.393429 2.312308 5.481969 -5.124248 -5.469995 -0.161940 10.359303 2.329889 0.140050 15.028759 -1.763040 -4.980958 
0.000000 23.112001 0.000000 0.000000 0.000000 0.000000 -0.380859 0.009766 -0.292969 -0.810444 -0.077333 -0.908198 -0.886193 0.932458 -0.429523 -2.156695 -1.234458 -0.624119 0.282000 -8.000000 -0.002700 0.000000 -4.000000 0.000000 -8.000000 0.000000 0.000000 -7.000000 0.000000 0.000000 0.000000 8.000000 -0.194200 -0.260200 4.000000 -0.449200 8.000000 0.000000 0.000000 7.000000 0.000000 0.000000 -5.124089 4.949144 0.037339 10.215412 -1.961732 -0.089084 13.393429 2.312308 5.481969 -5.124248 -5.469995 -0.161940 10.359303 2.329889 0.140050 15.028759 -1.763040 -4.980958 
0.000000 23.112001 0.000000 0.000000 0.000000 0.000000 -0.380859 0.009766 -0.292969 -0.810444 -0.077333 -0.908198 -0.886193 0.932458 -0.429523 -2.156695 -1.234458 -0.624119 0.282000 -8.000000 -0.002700 0.000000 -4.000000 0.000000 -8.000000 0.000000 0.000000 -7.000000 0.000000 0.000000 0.000000 8.000000 -0.194200 -0.260200 4.000000 -0.449200 8.000000 0.000000 0.000000 7.000000 0.000000 0.000000 -5.124089 4.949144 0.037339 10.215412 -1.961732 -0.089084 13.393429 2.312308 5.481969 -5.124248 -5.469995 -0.161940 10.359303 2.329889 0.140050 15.028759 -1.763040 -4.980958 
0.000000 23.112001 0.000000 0.000000 0.000000 0.000000 -0.380859 0.009766 -0.292969 -0.810444 -0.077333 -0.908198 -0.886193 0.932458 -0.429523 -2.156695 -1.234458 -0.624119 0.282000 -8.000000 -0.002700 0.000000 -4.000000 0.000000 -8.000000 0.000000 0.000000 -7.000000 0.000000 0.000000 0.000000 8.000000 -0.194200 -0.260200 4.000000 -0.449200 8.000000 0.000000 0.000000 7.000000 0.000000 0.000000 -5.124089 4.949144 0.037339 10.215412 -1.961732 -0.089084 13.393429 2.312308 5.481969 -5.124248 -5.469995 -0.161940 10.359303 2.329889 0.140050 15.028759 -1.763040 -4.980958 
0.000000 23.112001 0.000000 0.000000 0.000000 0.000000 -0.380859 0.009766 -0.292969 -0.810444 -0.077333 -0.908198 -0.886193 0.932458 -0.429523 -2.156695 -1.234458 -0.624119 0.282000 -8.000000 -0.002700 0.000000 -4.000000 0.000000 -8.000000 0.000000 0.000000 -7.000000 0.000000 0.000000 0.000000 8.000000 -0.194200 -0.260200 4.000000 -0.449200 8.000000 0.000000 0.000000 7.000000 0.000000 0.000000 -5.124089 4.949144 0.037339 10.215412 -1.961732 -0.089084 13.393429 2.312308 5.481969 -5.124248 -5.469995 -0.161940 10.359303 2.329889 0.140050 15.028759 -1.763040 -4.980958 
0.000000 23.112001 0.000000 0.000000 0.000000 0.000000 -0.380859 0.009766 -0.292969 -0.810444 -0.077333 -0.908198 -0.886193 0.932458 -0.429523 -2.156695 -1.234458 -0.624119 0.282000 -8.000000 -0.002700 0.000000 -4.000000 0.000000 -8.000000 0.000000 0.000000 -7.000000 0.000000 0.000000 0.000000 8.000000 -0.194200 -0.260200 4.000000 -0.449200 8.000000 0.000000 0.000000 7.000000 0.000000 0.000000 -5.124089 4.949144 0.037339 10.215412 -1.961732 -0.089084 13.393429 2.312308 5.481969 -5.124248 -5.469995 -0.161940 10.359303 2.329889 0.140050 15.028759 -1.763040 -4.980958 
0.000000 23.112001 0.000000 0.000000 0.000000 0.000000 -0.380859 0.009766 -0.292969 -0.810444 -0.077333 -0.908198 -0.886193 0.932458 -0.429523 -2.156695 -1.234458 -0.624119 0.282000 -8.000000 -0.002700 0.000000 -4.000000 0.000000 -8.000000 0.000000 0.000000 -7.000000 0.000000 0.000000 0.000000 8.000000 -0.194200 -0.260200 4.000000 -0.449200 8.000000 0.000000 0.000000 7.000000 0.000000 0.000000 -5.124089 4.949144 0.037339 10.215412 -1.961732 -0.089084 13.393429 2.312308 5.481969 -5.124248 -5.469995 -0.161940 10.359303 2.329889 0.140050 15.028759 -1.763040 -4.980958 
0.000000 23.112001 0.000000 0.000000 0.000000 0.000000 -0.380859 0.009766 -0.292969 -0.810444 -0.077333 -0.908198 -0.886193 0.932458 -0.429523 -2.156695 -1.234458 -0.624119 0.282000 -8.000000 -0.002700 0.000000 -4.000000 0.000000 -8.000000 0.000000 0.000000 -7.000000 0.000000 0.000000 0.000000 8.000000 -0.194200 -0.260200 4.000000 -0.449200 8.000000 0.000000 0.000000 7.000000 0.000000 0.000000 -5.124089 4.949144 0.037339 10.215412 -1.961732 -0.089084 13.393429 2.312308 5.481969 -5.124248 -5.469995 -0.161940 10.359303 2.329889 0.140050 15.028759 -1.763040 -4.980958 
0.000000 23.112001 0.000000 0.000000 0.000000 0.000000 -0.380859 0.009766 -0.292969 -0.810444 -0.077333 -0.908198 -0.886193 0.932458 -0.429523 -2.156695 -1.234458 -0.624119 0.282000 -8.000000 -0.002700 0.000000 -4.000000 0.000000 -8.000000 0.000000 0.000000 -7.000000 0.000000 0.000000 0.000000 8.000000 -0.194200 -0.260200 4.000000 -0.449200 8.000000 0.000000 0.000000 7.000000 0.000000 0.000000 -5.124089 4.949144 0.037339 10.215412 -1.961732 -0.089084 13.393429 2.312308 5.481969 -5.124248 -5.469995 -0.161940 10.359303 2.329889 0.140050 15.028759 -1.763040 -4.980958 
0.000000 23.112001 0.000000 0.000000 0.000000 0.000000 -0.380859 0.009766 -0.292969 -0.810444 -0.077333 -0.908198 -0.886193 0.932458 -0.429523 -2.156695 -1.234458 -0.624119 0.282000 -8.000000 -0.002700 0.000000 -4.000000 0.000000 -8.000000 0.000000 0.000000 -7.000000 0.000000 0.000000 0.000000 8.000000 -0.194200 -0.260200 4.000000 -0.449200 8.000000 0.000000 0.000000 7.000000 0.000000 0.000000 -5.124089 4.949144 0.037339 10.215412 -1.961732 -0.089084 13.393429 2.312308 5.481969 -5.124248 -5.469995 -0.161940 10.359303 2.329889 0.140050 15.028759 -1.763040 -4.980958 
0.000000 23.112001 0.000000 0.000000 0.000000 0.000000 -0.380859 0.009766 -0.292969 -0.810444 -0.077333 -0.908198 -0.886193 0.932458 -0.429523 -2.156695 -1.234458 -0.624119 0.282000 -8.000000 -0.002700 0.000000 -4.000000 0.000000 -8.000000 0.000000 0.000000 -7.000000 0.000000 0.000000 0.000000 8.000000 -0.194200 -0.260200 4.000000 -0.449200 8.000000 0.000000 0.000000 7.000000 0.000000 0.000000 -5.124089 4.949144 0.037339 10.215412 -1.961732 -0.089084 13.393429 2.312308 5.481969 -5.124248 -5.469995 -0.161940 10.359303 2.329889 0.140050 15.028759 -1.763040 -4.980958 
0.000000 23.112001 0.000000 0.000000 0.000000 0.000000 -0.380859 0.009766 -0.292969 -0.810444 -0.077333 -0.908198 -0.886193 0.932458 -0.429523 -2.156695 -1.234458 -0.624119 0.282000 -8.000000 -0.002700 0.000000 -4.000000 0.000000 -8.000000 0.000000 0.000000 -7.000000 0.000000 0.000000 0.000000 8.000000 -0.194200 -0.260200 4.000000 -0.449200 8.000000 0.000000 0.000000 7.000000 0.000000 0.000000 -5.124089 4.949144 0.037339 10.215412 -1.961732 -0.089084 13.393429 2.312308 5.481969 -5.124248 -5.469995 -0.161940 10.359303 2.329889 0.140050 15.028759 -1.763040 -4.980958 
